<?xml version="1.0" encoding="iso-8859-1"?>
<!-- Generator: Adobe Illustrator 16.0.0, SVG Export Plug-In . SVG Version: 6.00 Build 0)  -->
<!DOCTYPE svg PUBLIC "-//W3C//DTD SVG 1.1//EN" "http://www.w3.org/Graphics/SVG/1.1/DTD/svg11.dtd">
<svg version="1.1" id="Capa_1" xmlns="http://www.w3.org/2000/svg" xmlns:xlink="http://www.w3.org/1999/xlink" x="0px" y="0px"
	 width="313.064px" height="313.063px" viewBox="0 0 313.064 313.063" style="enable-background:new 0 0 313.064 313.063;"
	 xml:space="preserve">
<g>
	<g>
		<path d="M203.607,17.598C196.585,7.337,178.188,0,156.53,0c-21.655,0-40.055,7.337-47.074,17.598
			c10.494-2.045,25.515-3.436,47.074-3.436S193.111,15.552,203.607,17.598z"/>
		<path d="M123.9,92.018l1.256-1.486c4.937-5.831,21.725-6.959,31.289-7.115h0.085h0.085c9.564,0.156,26.352,1.284,31.292,7.115
			l1.253,1.486v1.452c5.737-10.716,32.508-62.021,32.508-62.021s-0.72-4.401-15.363-7.871c-9.507-2.247-24.87-4.108-49.775-4.108
			c-24.904,0-40.26,1.856-49.774,4.108c-14.644,3.47-15.361,7.871-15.361,7.871S118.163,82.754,123.9,93.47V92.018z"/>
		<path d="M156.53,313.063c35.934,0,62.886-3.743,77.116-106.307c8.378-60.405-19.854-82.363-44.485-90.221
			c-0.891-0.288-1.771-0.542-2.651-0.785c-0.891-0.251-1.776-0.5-2.651-0.717V104.17v-2.975v-2.832v-4.399
			c-4.116-4.868-27.328-5.24-27.328-5.24s-23.208,0.378-27.328,5.24v4.394v2.832v2.975v10.864c-0.875,0.217-1.76,0.461-2.651,0.717
			c-0.88,0.249-1.761,0.502-2.651,0.785c-24.629,7.858-52.861,29.815-44.482,90.221C93.645,309.32,120.597,313.063,156.53,313.063z"
			/>
	</g>
</g>
<g>
</g>
<g>
</g>
<g>
</g>
<g>
</g>
<g>
</g>
<g>
</g>
<g>
</g>
<g>
</g>
<g>
</g>
<g>
</g>
<g>
</g>
<g>
</g>
<g>
</g>
<g>
</g>
<g>
</g>
</svg>
